<?xml version="1.0" encoding="utf-8"?>
<!-- Generator: Adobe Illustrator 27.7.0, SVG Export Plug-In . SVG Version: 6.00 Build 0)  -->
<svg version="1.1" id="Layer_1" xmlns="http://www.w3.org/2000/svg" xmlns:xlink="http://www.w3.org/1999/xlink" x="0px" y="0px"
	 viewBox="0 0 26 20" style="enable-background:new 0 0 26 20;" xml:space="preserve">
<style type="text/css">
	.st0{fill:#FFFFFF;}
	.st1{fill-rule:evenodd;clip-rule:evenodd;fill:#FFFFFF;}
</style>
<g>
	<g>
		<g>
			<g>
				<path class="st0" d="M16.2,8.9l-13.8-8C2.2,0.8,2,0.7,1.8,0.7c-0.2,0-0.5,0.1-0.6,0.2C0.7,1.1,0.5,1.5,0.5,2v16
					c0,0.5,0.2,0.9,0.6,1.1c0.2,0.1,0.4,0.2,0.6,0.2c0.2,0,0.5-0.1,0.6-0.2l13.8-8c0.4-0.2,0.6-0.6,0.6-1.1
					C17,9.6,16.6,9.2,16.2,8.9z"/>
			</g>
		</g>
	</g>
	<g>
		<path class="st1" d="M23.3,0.6L23.3,0.6c1.2,0,2.2,1,2.2,2.2v14.4c0,1.2-1,2.2-2.2,2.2l0,0c-1.2,0-2.2-1-2.2-2.2V2.9
			C21,1.6,22,0.6,23.3,0.6z"/>
	</g>
</g>
</svg>
