<?xml version="1.0" encoding="utf-8"?>
<!-- Generator: Adobe Illustrator 27.7.0, SVG Export Plug-In . SVG Version: 6.00 Build 0)  -->
<svg version="1.1" id="Layer_1" xmlns="http://www.w3.org/2000/svg" xmlns:xlink="http://www.w3.org/1999/xlink" x="0px" y="0px"
	 viewBox="0 0 26 20" style="enable-background:new 0 0 26 20;" xml:space="preserve">
<style type="text/css">
	.st0{fill:#FFFFFF;}
	.st1{fill-rule:evenodd;clip-rule:evenodd;fill:#FFFFFF;}
</style>
<g>
	<g>
		<g>
			<g>
				<path class="st0" d="M24.9,8.9L11,0.9c-0.2-0.1-0.4-0.2-0.6-0.2c-0.2,0-0.5,0.1-0.6,0.2C9.3,1.1,9.1,1.5,9.1,2v16
					c0,0.5,0.2,0.9,0.6,1.1c0.2,0.1,0.4,0.2,0.6,0.2c0.2,0,0.5-0.1,0.6-0.2l13.8-8c0.4-0.2,0.6-0.6,0.6-1.1
					C25.6,9.6,25.3,9.2,24.9,8.9z"/>
			</g>
		</g>
	</g>
	<g>
		<path class="st1" d="M5,2.9v14.3c0,1.2-1,2.2-2.2,2.2l0,0c-1.2,0-2.2-1-2.2-2.2V2.8c0-1.2,1-2.2,2.2-2.2l0,0C4,0.6,5,1.6,5,2.9z"
			/>
	</g>
</g>
</svg>
