<?xml version="1.0" encoding="utf-8"?>
<!-- Generator: Adobe Illustrator 27.8.0, SVG Export Plug-In . SVG Version: 6.00 Build 0)  -->
<svg version="1.1" id="Layer_1" xmlns="http://www.w3.org/2000/svg" xmlns:xlink="http://www.w3.org/1999/xlink" x="0px" y="0px"
	 viewBox="0 0 44 44" style="enable-background:new 0 0 44 44;" xml:space="preserve">
<style type="text/css">
	.st0{fill:#7D8EC4;}
	.st1{fill:#212C58;}
	.st2{fill:#009FFF;}
</style>
<g>
	<path class="st0" d="M22,0.2C9.9,0.2,0.2,9.9,0.2,22S9.9,43.8,22,43.8S43.8,34.1,43.8,22S34.1,0.2,22,0.2z"/>
	<path class="st1" d="M22,38.2c-8.9,0-16.2-7.2-16.2-16.2S13.1,5.8,22,5.8c8.9,0,16.2,7.2,16.2,16.2S30.9,38.2,22,38.2z"/>
	<g>
		<path class="st2" d="M31.1,20.9l-13.2-7.6c-0.2-0.1-0.3-0.2-0.6-0.2c-0.2,0-0.4,0.1-0.6,0.2c-0.3,0.3-0.6,0.6-0.6,1v15.3
			c0,0.4,0.3,0.9,0.6,1c0.2,0.1,0.3,0.2,0.6,0.2c0.2,0,0.4-0.1,0.6-0.2L31.1,23c0.3-0.3,0.6-0.6,0.6-1
			C31.7,21.6,31.5,21.1,31.1,20.9z"/>
	</g>
</g>
</svg>
