<?xml version="1.0" encoding="utf-8"?>
<!-- Generator: Adobe Illustrator 27.8.0, SVG Export Plug-In . SVG Version: 6.00 Build 0)  -->
<svg version="1.1" id="Layer_1" xmlns="http://www.w3.org/2000/svg" xmlns:xlink="http://www.w3.org/1999/xlink" x="0px" y="0px"
	 viewBox="0 0 44 44" style="enable-background:new 0 0 44 44;" xml:space="preserve">
<style type="text/css">
	.st0{fill:#7D8EC4;}
	.st1{fill:#212C58;}
	.st2{fill:#FFFFFF;}
</style>
<g>
	<path class="st0" d="M22,0.2C9.9,0.2,0.2,9.9,0.2,22S9.9,43.8,22,43.8S43.8,34.1,43.8,22S34.1,0.2,22,0.2z"/>
	<path class="st1" d="M22,38.2c-8.9,0-16.2-7.2-16.2-16.2S13.1,5.8,22,5.8c8.9,0,16.2,7.2,16.2,16.2S30.9,38.2,22,38.2z"/>
</g>
<g>
	<path class="st2" d="M28.8,30.2H15.3c-0.8,0-1.5-0.6-1.5-1.5V15.3c0-0.8,0.6-1.5,1.5-1.5h13.4c0.8,0,1.5,0.6,1.5,1.5v13.4
		C30.1,29.6,29.5,30.2,28.8,30.2z"/>
</g>
</svg>
