<?xml version="1.0" encoding="utf-8"?>
<!-- Generator: Adobe Illustrator 27.8.0, SVG Export Plug-In . SVG Version: 6.00 Build 0)  -->
<svg version="1.1" id="Layer_1" xmlns="http://www.w3.org/2000/svg" xmlns:xlink="http://www.w3.org/1999/xlink" x="0px" y="0px"
	 viewBox="0 0 44 48" style="enable-background:new 0 0 44 48;" xml:space="preserve">
<style type="text/css">
	.st0{fill:#FFDD17;}
	.st1{fill:#E5007D;}
	.st2{fill:#009FFF;}
</style>
<g>
	<path class="st0" d="M40,13.1L22.8,23c-0.5,0.3-1.1,0.3-1.6,0L4,13.1c-1.1-0.6-1.1-2.2,0-2.8l17.2-9.9c0.5-0.3,1.1-0.3,1.6,0
		L40,10.3C41.1,10.9,41.1,12.5,40,13.1z"/>
	<path class="st1" d="M20.9,26.4v19.8c0,1.3-1.4,2.1-2.5,1.4l-3.6-2.1L1.2,37.7c-0.5-0.3-0.8-0.8-0.8-1.4V16.5
		c0-1.3,1.4-2.1,2.5-1.4l14,8.1L20,25C20.6,25.3,20.9,25.8,20.9,26.4z"/>
	<path class="st2" d="M23.1,26.4v19.8c0,1.3,1.4,2.1,2.5,1.4l17.2-9.9c0.5-0.3,0.8-0.8,0.8-1.4V16.5c0-1.3-1.4-2.1-2.5-1.4L24,25
		C23.4,25.3,23.1,25.8,23.1,26.4z"/>
</g>
</svg>
