<?xml version="1.0" encoding="utf-8"?>
<!-- Generator: Adobe Illustrator 27.8.1, SVG Export Plug-In . SVG Version: 6.00 Build 0)  -->
<svg version="1.1" id="Layer_1" xmlns="http://www.w3.org/2000/svg" xmlns:xlink="http://www.w3.org/1999/xlink" x="0px" y="0px"
	 viewBox="0 0 50 50" style="enable-background:new 0 0 50 50;" xml:space="preserve">
<style type="text/css">
	.st0{fill:#009FFF;}
</style>
<g>
	<g>
		<path class="st0" d="M16.7,25c0,4.6,3.7,8.3,8.3,8.3s8.3-3.7,8.3-8.3c0-4.6-3.7-8.3-8.3-8.3S16.7,20.4,16.7,25z"/>
	</g>
	<path class="st0" d="M0.1,25c0,13.7,11.1,24.9,24.9,24.9S49.9,38.7,49.9,25S38.7,0.1,25,0.1S0.1,11.3,0.1,25z M8.4,25
		c0-9.2,7.4-16.6,16.6-16.6c9.2,0,16.6,7.4,16.6,16.6c0,2.9-0.7,5.6-2,8l2.1,8.7L33,39.5c-2.4,1.3-5.1,2-8,2
		C15.8,41.6,8.4,34.2,8.4,25z"/>
</g>
</svg>
