<?xml version="1.0" encoding="utf-8"?>
<!-- Generator: Adobe Illustrator 27.7.0, SVG Export Plug-In . SVG Version: 6.00 Build 0)  -->
<svg version="1.1" id="Layer_1" xmlns="http://www.w3.org/2000/svg" xmlns:xlink="http://www.w3.org/1999/xlink" x="0px" y="0px"
	 viewBox="0 0 172 20" style="enable-background:new 0 0 172 20;" xml:space="preserve">
<style type="text/css">
	.st0{fill:#FFFFFF;}
	.st1{fill:#66CC00;}
</style>
<g>
	<g>
		<path class="st0" d="M17.2,19.25L17.17,8.12l-5.46,9.17H9.78L4.34,8.36v10.9H0.31V0.69h3.55l6.95,11.53l6.84-11.53h3.53
			l0.05,18.56H17.2z"/>
		<path class="st0" d="M25.63,0.69h4.3v15.06h9.31v3.5h-13.6V0.69z"/>
		<path class="st0" d="M58.53,19.25L58.5,8.12l-5.46,9.17H51.1l-5.44-8.93v10.9h-4.03V0.69h3.55l6.95,11.53l6.84-11.53h3.53
			l0.05,18.56H58.53z"/>
		<path class="st1" d="M65.65,16.87c0-1.54,1.14-2.55,2.57-2.55c1.43,0,2.57,1.01,2.57,2.55c0,1.51-1.14,2.6-2.57,2.6
			C66.79,19.46,65.65,18.38,65.65,16.87z"/>
		<path class="st0" d="M72.94,17l0.77-1.51c1.33,1.3,3.69,2.25,6.12,2.25c3.47,0,4.98-1.46,4.98-3.29c0-5.09-11.43-1.96-11.43-8.83
			c0-2.73,2.12-5.09,6.84-5.09c2.09,0,4.27,0.61,5.75,1.64l-0.66,1.56c-1.59-1.03-3.45-1.54-5.09-1.54c-3.39,0-4.9,1.51-4.9,3.37
			c0,5.09,11.43,2.01,11.43,8.78c0,2.73-2.17,5.06-6.92,5.06C77.05,19.41,74.32,18.43,72.94,17z"/>
		<path class="st0" d="M89.38,9.97c0-5.41,4.14-9.44,9.76-9.44c5.57,0,9.73,4,9.73,9.44c0,5.44-4.16,9.44-9.73,9.44
			C93.51,19.41,89.38,15.38,89.38,9.97z M106.9,9.97c0-4.43-3.31-7.69-7.77-7.69c-4.48,0-7.82,3.26-7.82,7.69s3.34,7.69,7.82,7.69
			C103.59,17.66,106.9,14.4,106.9,9.97z"/>
		<path class="st0" d="M111.62,9.97c0-5.43,4.14-9.44,9.73-9.44c2.7,0,5.14,0.9,6.79,2.7l-1.25,1.25c-1.51-1.54-3.37-2.2-5.49-2.2
			c-4.48,0-7.85,3.29-7.85,7.69c0,4.4,3.37,7.69,7.85,7.69c2.12,0,3.98-0.66,5.49-2.23l1.25,1.25c-1.64,1.8-4.08,2.73-6.81,2.73
			C115.75,19.41,111.62,15.41,111.62,9.97z"/>
		<path class="st0" d="M132.32,0.69h1.96v18.56h-1.96V0.69z"/>
		<path class="st0" d="M151.97,14.3h-10.34l-2.23,4.96h-2.04l8.48-18.56h1.94l8.48,18.56h-2.07L151.97,14.3z M151.25,12.7
			l-4.45-9.97l-4.45,9.97H151.25z"/>
		<path class="st0" d="M159.33,0.69h1.96v16.86h10.39v1.7h-12.35V0.69z"/>
	</g>
</g>
</svg>
