<?xml version="1.0" encoding="utf-8"?>
<!-- Generator: Adobe Illustrator 27.7.0, SVG Export Plug-In . SVG Version: 6.00 Build 0)  -->
<svg version="1.1" id="Layer_1" xmlns="http://www.w3.org/2000/svg" xmlns:xlink="http://www.w3.org/1999/xlink" x="0px" y="0px"
	 viewBox="0 0 52 52" style="enable-background:new 0 0 52 52;" xml:space="preserve">
<style type="text/css">
	.st0{fill:#00DB00;}
	.st1{fill:#FFFFFF;}
</style>
<g>
	<g>
		<path class="st0" d="M44.3,7.7C34.2-2.4,17.8-2.4,7.7,7.7c-10.1,10.1-10.1,26.5,0,36.6c8.9,8.9,22.7,10,32.7,3.2l9.3,2.2l-2.2-9.3
			C54.2,30.4,53.2,16.6,44.3,7.7z"/>
	</g>
	<path class="st1" d="M38,14c-6.6-6.6-17.4-6.6-24,0c-5.8,5.8-6.5,14.9-2.1,21.5l-1.5,6.1l6.1-1.5c6.6,4.4,15.6,3.8,21.5-2.1
		C44.6,31.4,44.6,20.6,38,14z M19.5,19.1c1.5,0,2.6,1.4,2.6,3.1s-1.2,3.1-2.6,3.1c-1.5,0-2.6-1.4-2.6-3.1S18,19.1,19.5,19.1z
		 M34.6,31.6c-1.8,2.7-5,4.5-8.6,4.5c-3.6,0-6.7-1.8-8.6-4.5c-0.6-0.9,0.5-1.9,1.3-1.2c1.9,1.5,4.4,2.4,7.2,2.4
		c2.8,0,5.3-0.9,7.2-2.4C34,29.7,35.1,30.8,34.6,31.6z M32.5,25.4c-1.5,0-2.6-1.4-2.6-3.1s1.2-3.1,2.6-3.1c1.5,0,2.6,1.4,2.6,3.1
		S33.9,25.4,32.5,25.4z"/>
</g>
</svg>
