<?xml version="1.0" encoding="utf-8"?>
<!-- Generator: Adobe Illustrator 27.0.0, SVG Export Plug-In . SVG Version: 6.00 Build 0)  -->
<svg version="1.1" id="Layer_1" xmlns="http://www.w3.org/2000/svg" xmlns:xlink="http://www.w3.org/1999/xlink" x="0px" y="0px"
	 viewBox="0 0 50 50" style="enable-background:new 0 0 50 50;" xml:space="preserve">
<style type="text/css">
	.st0{fill:#8CC835;}
	.st1{fill:#FFFFFF;}
</style>
<g>
	<path class="st0" d="M42.6,7.4c-9.7-9.7-25.5-9.7-35.2,0s-9.7,25.5,0,35.2c8.6,8.6,21.8,9.6,31.5,3.1l8.9,2.2l-2.2-8.9
		C52.2,29.2,51.2,16,42.6,7.4z M36.5,36.5c-5.6,5.6-14.3,6.3-20.7,2L10,40l1.4-5.9c-4.3-6.4-3.6-15,2-20.7c6.4-6.4,16.7-6.4,23.1,0
		C42.9,19.8,42.9,30.2,36.5,36.5z"/>
	<g>
		<ellipse transform="matrix(0.1299 -0.9915 0.9915 0.1299 -9.948 38.6634)" class="st1" cx="17.1" cy="25" rx="2.4" ry="2.4"/>
		<ellipse transform="matrix(0.1602 -0.9871 0.9871 0.1602 -3.7356 45.6092)" class="st1" cx="24.9" cy="25" rx="2.4" ry="2.4"/>
		<ellipse transform="matrix(0.1602 -0.9871 0.9871 0.1602 2.8821 53.3874)" class="st1" cx="32.8" cy="25" rx="2.4" ry="2.4"/>
	</g>
</g>
</svg>
