<?xml version="1.0" encoding="utf-8"?>
<!-- Generator: Adobe Illustrator 27.0.0, SVG Export Plug-In . SVG Version: 6.00 Build 0)  -->
<svg version="1.1" id="Layer_1" xmlns="http://www.w3.org/2000/svg" xmlns:xlink="http://www.w3.org/1999/xlink" x="0px" y="0px"
	 viewBox="0 0 316 236" style="enable-background:new 0 0 316 236;" xml:space="preserve">
<style type="text/css">
	.st0{fill:#8CC835;}
	.st1{fill:#FFFFFF;}
</style>
<g>
	<path class="st0" d="M200.9,19.9c-25.7-25.7-67.5-25.7-93.2,0s-25.7,67.5,0,93.2c22.7,22.7,57.8,25.4,83.4,8.1l23.6,5.7l-5.7-23.6
		C226.3,77.7,223.6,42.6,200.9,19.9z M184.9,97.1c-14.9,14.9-37.9,16.6-54.7,5.3l-15.5,3.7l3.7-15.5c-11.3-16.8-9.6-39.8,5.3-54.7
		c16.9-16.9,44.3-16.9,61.2,0C201.7,52.9,201.7,80.3,184.9,97.1z"/>
	<g>
		
			<ellipse transform="matrix(0.1299 -0.9915 0.9915 0.1299 49.9255 190.0005)" class="st1" cx="133.2" cy="66.6" rx="6.3" ry="6.3"/>
		
			<ellipse transform="matrix(0.1602 -0.9871 0.9871 0.1602 63.7163 207.9963)" class="st1" cx="154.1" cy="66.6" rx="6.3" ry="6.3"/>
		<ellipse transform="matrix(0.1602 -0.9871 0.9871 0.1602 81.2441 228.5977)" class="st1" cx="175" cy="66.6" rx="6.3" ry="6.3"/>
	</g>
</g>
<g>
	<g>
		<path class="st1" d="M31.9,200.1l0-20.2L22,196.5h-3.5l-9.8-16.2v19.7H1.3v-33.6h6.4l12.6,20.9l12.4-20.9h6.4l0.1,33.6H31.9z"/>
		<path class="st1" d="M47.2,166.5h7.8v27.3h16.8v6.3H47.2V166.5z"/>
		<path class="st1" d="M106.7,200.1l0-20.2l-9.9,16.6h-3.5l-9.8-16.2v19.7h-7.3v-33.6h6.4l12.6,20.9l12.4-20.9h6.4l0.1,33.6H106.7z"
			/>
		<path class="st0" d="M119.6,195.8c0-2.8,2.1-4.6,4.7-4.6c2.6,0,4.7,1.8,4.7,4.6c0,2.7-2.1,4.7-4.7,4.7
			C121.7,200.5,119.6,198.5,119.6,195.8z"/>
		<path class="st1" d="M133.8,196.2l1.8-3.7c2.5,2.3,6.8,3.9,11.1,3.9c5.8,0,8.3-2.3,8.3-5.2c0-8.2-20.4-3-20.4-15.5
			c0-5.2,4-9.6,12.9-9.6c3.9,0,8,1.1,10.8,3l-1.6,3.8c-2.9-1.9-6.2-2.7-9.2-2.7c-5.7,0-8.2,2.4-8.2,5.3c0,8.2,20.4,3.1,20.4,15.4
			c0,5.1-4.1,9.6-13,9.6C141.5,200.5,136.4,198.7,133.8,196.2z"/>
		<path class="st1" d="M163.9,183.3c0-9.8,7.6-17.2,17.9-17.2c10.2,0,17.8,7.3,17.8,17.2s-7.6,17.2-17.8,17.2
			C171.5,200.5,163.9,193.1,163.9,183.3z M194.8,183.3c0-7.4-5.6-12.9-13-12.9c-7.5,0-13.1,5.5-13.1,12.9c0,7.4,5.6,12.9,13.1,12.9
			C189.2,196.2,194.8,190.7,194.8,183.3z"/>
		<path class="st1" d="M204.2,183.3c0-9.9,7.6-17.2,17.8-17.2c5.2,0,9.7,1.8,12.8,5.2l-3.1,3c-2.6-2.7-5.8-4-9.5-4
			c-7.6,0-13.2,5.5-13.2,12.9c0,7.4,5.6,12.9,13.2,12.9c3.7,0,6.9-1.3,9.5-4l3.1,3c-3.1,3.5-7.6,5.3-12.8,5.3
			C211.8,200.5,204.2,193.2,204.2,183.3z"/>
		<path class="st1" d="M241.7,166.5h4.8v33.6h-4.8V166.5z"/>
		<path class="st1" d="M278,191.7h-17.9l-3.7,8.4h-4.9l15.2-33.6h4.8l15.3,33.6h-5L278,191.7z M276.3,187.8l-7.2-16.5l-7.2,16.5
			H276.3z"/>
		<path class="st1" d="M291.7,166.5h4.8v29.4h18.2v4.2h-23V166.5z"/>
	</g>
</g>
<g>
	<path class="st0" d="M52.6,221.7h2v12.3h7.6v1.7h-9.6V221.7z"/>
	<path class="st0" d="M78.6,233.9v1.7H68.4v-14h9.9v1.7h-7.9v4.3h7v1.7h-7v4.5H78.6z"/>
	<path class="st0" d="M88.6,223.4h-4.8v-1.7h11.6v1.7h-4.8v12.3h-2V223.4z"/>
	<path class="st0" d="M103.6,222.1c0,0.4-0.1,0.7-0.3,1.4l-1,2.8h-1.3l0.7-3c-0.5-0.2-0.8-0.6-0.8-1.2c0-0.8,0.6-1.4,1.3-1.4
		C103.1,220.7,103.6,221.3,103.6,222.1z"/>
	<path class="st0" d="M109.6,234.1l0.7-1.6c1,0.9,2.8,1.6,4.6,1.6c2.4,0,3.5-0.9,3.5-2.2c0-3.4-8.5-1.3-8.5-6.5c0-2.2,1.7-4,5.4-4
		c1.6,0,3.3,0.4,4.5,1.2l-0.7,1.6c-1.2-0.8-2.6-1.1-3.8-1.1c-2.4,0-3.4,1-3.4,2.2c0,3.4,8.5,1.3,8.5,6.4c0,2.1-1.7,4-5.4,4
		C112.8,235.8,110.7,235.1,109.6,234.1z"/>
	<path class="st0" d="M135.5,228.7c0-4.1,3.2-7.2,7.4-7.2c2.2,0,4,0.7,5.3,2.2l-1.3,1.3c-1.1-1.1-2.4-1.7-3.9-1.7
		c-3.2,0-5.5,2.3-5.5,5.4c0,3.1,2.3,5.4,5.5,5.4c1.5,0,2.9-0.5,3.9-1.7l1.3,1.3c-1.3,1.4-3.2,2.2-5.3,2.2
		C138.7,235.8,135.5,232.8,135.5,228.7z"/>
	<path class="st0" d="M153.7,228.7c0-4.1,3.2-7.2,7.5-7.2c4.3,0,7.4,3,7.4,7.2s-3.2,7.2-7.4,7.2
		C156.8,235.8,153.7,232.8,153.7,228.7z M166.6,228.7c0-3.1-2.3-5.4-5.4-5.4c-3.1,0-5.5,2.3-5.5,5.4c0,3.1,2.3,5.4,5.5,5.4
		C164.2,234,166.6,231.8,166.6,228.7z"/>
	<path class="st0" d="M187.7,221.7v14H186l-8.4-10.4v10.4h-2v-14h1.6l8.4,10.4v-10.4H187.7z"/>
	<path class="st0" d="M207.9,221.7v14h-1.6l-8.4-10.4v10.4h-2v-14h1.6l8.4,10.4v-10.4H207.9z"/>
	<path class="st0" d="M226.3,233.9v1.7h-10.2v-14h9.9v1.7h-7.9v4.3h7v1.7h-7v4.5H226.3z"/>
	<path class="st0" d="M232.3,228.7c0-4.1,3.2-7.2,7.4-7.2c2.2,0,4,0.7,5.3,2.2l-1.3,1.3c-1.1-1.1-2.4-1.7-3.9-1.7
		c-3.2,0-5.5,2.3-5.5,5.4c0,3.1,2.3,5.4,5.5,5.4c1.5,0,2.9-0.5,3.9-1.7l1.3,1.3c-1.3,1.4-3.2,2.2-5.3,2.2
		C235.5,235.8,232.3,232.8,232.3,228.7z"/>
	<path class="st0" d="M254.5,223.4h-4.8v-1.7h11.6v1.7h-4.8v12.3h-2V223.4z"/>
</g>
</svg>
