<?xml version="1.0" encoding="utf-8"?>
<!-- Generator: Adobe Illustrator 27.0.0, SVG Export Plug-In . SVG Version: 6.00 Build 0)  -->
<svg version="1.1" id="Layer_1" xmlns="http://www.w3.org/2000/svg" xmlns:xlink="http://www.w3.org/1999/xlink" x="0px" y="0px"
	 viewBox="0 0 80 70" style="enable-background:new 0 0 80 70;" xml:space="preserve">
<style type="text/css">
	.st0{fill:#FFFFFF;}
</style>
<g>
	<path class="st0" d="M68.3,4.7H12.8c-4.9,0-10.5,4.3-10.5,8.5v33.7c0,3.9,4.8,6.6,9.3,7.1l-3,11.3l19.1-11.2h40.7
		c4.9,0,9.4-3,9.4-7.1V19.7v-6.4C77.7,9.1,73.2,4.7,68.3,4.7z M21.2,33.1c-2.8,0-5-2.2-5-5c0-2.8,2.2-5,5-5c2.8,0,5,2.2,5,5
		C26.3,30.9,24,33.1,21.2,33.1z M40,33.1c-2.8,0-5-2.2-5-5c0-2.8,2.2-5,5-5s5,2.2,5,5C45,30.9,42.8,33.1,40,33.1z M58.8,33.1
		c-2.8,0-5-2.2-5-5c0-2.8,2.3-5,5-5c2.8,0,5,2.2,5,5C63.8,30.9,61.5,33.1,58.8,33.1z"/>
</g>
</svg>
