<?xml version="1.0" encoding="utf-8"?>
<!-- Generator: Adobe Illustrator 27.2.0, SVG Export Plug-In . SVG Version: 6.00 Build 0)  -->
<svg version="1.1" id="Layer_1" xmlns="http://www.w3.org/2000/svg" xmlns:xlink="http://www.w3.org/1999/xlink" x="0px" y="0px"
	 viewBox="48 32 60 55" style="enable-background:new 48 32 60 55;" xml:space="preserve">
<style type="text/css">
	.st0{fill:none;}
	.st1{fill:#FFFFFF;}
</style>
<rect class="st0" width="160" height="160"/>
<g>
	<path class="st1" d="M80,71.4L80,71.4c4.9,0,8.9-4,8.9-8.9V46.9c0-4.9-4-8.9-8.9-8.9h0c-4.9,0-8.9,4-8.9,8.9v15.5
		C71.1,67.4,75.1,71.4,80,71.4z"/>
	<path class="st1" d="M93.4,61.3c-1.1,0-2,0.9-2,2v0.5c0,1.5-0.3,3-0.9,4.4c-0.6,1.4-1.4,2.6-2.5,3.7c-1.1,1.1-2.3,1.9-3.7,2.5
		C83,75,81.5,75.3,80,75.3c-1.5,0-3-0.3-4.4-0.9c-1.4-0.6-2.6-1.4-3.7-2.5c-1.1-1.1-1.9-2.3-2.5-3.7c-0.6-1.4-0.9-2.9-0.9-4.4v-0.5
		c0-1.1-0.9-2-2-2c-1.1,0-2,0.9-2,2v0.5c0,2.1,0.4,4.1,1.2,6c0.8,1.8,1.9,3.5,3.3,4.9c1.4,1.4,3.1,2.5,4.9,3.3
		c1.3,0.5,2.6,0.9,4,1.1v3.2h-7.1c-1.1,0-2,0.9-2,2s0.9,2,2,2h18.2c1.1,0,2-0.9,2-2s-0.9-2-2-2H82v-3.2c1.4-0.2,2.7-0.5,4-1.1
		c1.8-0.8,3.5-1.9,4.9-3.3s2.5-3.1,3.3-4.9c0.8-1.9,1.2-3.9,1.2-6v-0.5C95.4,62.2,94.5,61.3,93.4,61.3z"/>
</g>
</svg>
