<?xml version="1.0" encoding="utf-8"?>
<!-- Generator: Adobe Illustrator 27.0.0, SVG Export Plug-In . SVG Version: 6.00 Build 0)  -->
<svg version="1.1" id="Layer_1" xmlns="http://www.w3.org/2000/svg" xmlns:xlink="http://www.w3.org/1999/xlink" x="0px" y="0px"
	 viewBox="0 0 80 70" style="enable-background:new 0 0 80 70;" xml:space="preserve">
<style type="text/css">
	.st0{fill-rule:evenodd;clip-rule:evenodd;fill:#FFFFFF;}
</style>
<path class="st0" d="M64.6,0.1c-7.9,0-14.4,6.4-14.4,14.4c0,3.7,1.4,7.2,4,9.9L43.9,41.7c-1.2-0.3-2.5-0.5-3.7-0.5
	c-1.3,0-2.5,0.2-3.8,0.5L25.8,24.3c2.5-2.7,3.9-6.2,3.9-9.8c0-7.9-6.4-14.4-14.4-14.4S1,6.5,1,14.5s6.4,14.4,14.4,14.4
	c1.3,0,2.5-0.2,3.8-0.5l10.5,17.5c-2.5,2.7-3.9,6.2-3.9,9.8c0,7.9,6.4,14.4,14.4,14.4s14.4-6.4,14.4-14.4c0-3.7-1.4-7.2-4-9.9
	l10.3-17.4c1.2,0.3,2.5,0.5,3.7,0.5c7.9,0,14.4-6.4,14.4-14.4S72.5,0.1,64.6,0.1z"/>
</svg>
