<?xml version="1.0" encoding="utf-8"?>
<!-- Generator: Adobe Illustrator 27.0.0, SVG Export Plug-In . SVG Version: 6.00 Build 0)  -->
<svg version="1.1" id="Layer_1" xmlns="http://www.w3.org/2000/svg" xmlns:xlink="http://www.w3.org/1999/xlink" x="0px" y="0px"
	 viewBox="0 0 80 70" style="enable-background:new 0 0 80 70;" xml:space="preserve">
<style type="text/css">
	.st0{fill:#FFFFFF;}
</style>
<g>
	<path class="st0" d="M62.8,0.9c-0.5-0.5-1.2-0.8-1.9-0.8c-1.5,0-2.8,1.2-2.8,2.7v1.3v10.7c0,0.7,0.3,1.4,0.8,1.9
		c0.5,0.5,1.2,0.8,1.9,0.8c1.5,0,2.8-1.2,2.8-2.7V4.1V2.8C63.6,2,63.2,1.4,62.8,0.9z"/>
	<path class="st0" d="M21.1,0.9c-0.5-0.5-1.2-0.8-1.9-0.8c-1.5,0-2.8,1.2-2.8,2.7v1.3v10.7c0,0.7,0.3,1.4,0.8,1.9
		c0.5,0.5,1.2,0.8,1.9,0.8c1.5,0,2.8-1.2,2.8-2.7V4.1V2.8C21.9,2,21.6,1.4,21.1,0.9z"/>
	<path class="st0" d="M67.8,6.5v8.2c0,3.8-3.1,6.9-7,6.9c-1.9,0-3.6-0.7-4.9-2c-1.3-1.3-2.1-3-2.1-4.9V6.3H26.1v8.5
		c0,3.8-3.1,6.9-7,6.9c-1.8,0-3.6-0.7-4.9-2c-1.3-1.3-2.1-3.1-2.1-4.9V6.5c-5.3,1.1-9.3,5.8-9.3,11.4v40.4c0,0.1,0,0.3,0,0.4
		c0.2,6.2,5.3,11.2,11.6,11.2h51c6.4,0,11.6-5.2,11.6-11.6V17.9C77.1,12.3,73.1,7.6,67.8,6.5z M58.7,49.1c-0.5,0.5-1.2,0.8-1.9,0.8
		H23.2c-1.5,0-2.7-1.2-2.7-2.8c0-0.8,0.3-1.4,0.8-1.9c0.5-0.5,1.2-0.8,1.9-0.8h33.6c1.5,0,2.7,1.2,2.7,2.8
		C59.5,48,59.2,48.6,58.7,49.1z M58.7,38.9c-0.5,0.5-1.2,0.8-1.9,0.8H23.2c-1.5,0-2.7-1.2-2.7-2.8c0-0.8,0.3-1.4,0.8-1.9
		c0.5-0.5,1.2-0.8,1.9-0.8h33.6c1.5,0,2.7,1.2,2.7,2.8C59.5,37.7,59.2,38.4,58.7,38.9z"/>
</g>
</svg>
