<?xml version="1.0" encoding="utf-8"?>
<!-- Generator: Adobe Illustrator 27.2.0, SVG Export Plug-In . SVG Version: 6.00 Build 0)  -->
<svg version="1.1" id="Layer_1" xmlns="http://www.w3.org/2000/svg" xmlns:xlink="http://www.w3.org/1999/xlink" x="0px" y="0px"
	 viewBox="0 0 160 160" style="enable-background:new 0 0 160 160;" xml:space="preserve">
<style type="text/css">
	.st0{fill:none;}
	.st1{fill:#FFFFFF;}
</style>
<rect class="st0" width="160" height="160"/>
<g>
	<polygon class="st1" points="86.7,36.1 86.7,47.6 98.3,47.6 	"/>
	<path class="st1" d="M86.8,51.4c-3.5,0-4-0.6-4-4c0-2.4,0-8.4,0-11.9H65.3c-3.6,0-6.5,2.9-6.5,6.5v38.4c0,3.5,2.9,6.4,6.4,6.4h27.2
		c3.5,0,6.4-2.9,6.4-6.4v-29C95.5,51.4,89.8,51.4,86.8,51.4z M79.6,78.1c-0.4,0.5-1,0.5-1.4,0l-7.9-10.5h4.4v-7.6h8.4v7.6h4.4
		L79.6,78.1z"/>
</g>
</svg>
