<?xml version="1.0" encoding="utf-8"?>
<!-- Generator: Adobe Illustrator 27.0.0, SVG Export Plug-In . SVG Version: 6.00 Build 0)  -->
<svg version="1.1" id="Layer_1" xmlns="http://www.w3.org/2000/svg" xmlns:xlink="http://www.w3.org/1999/xlink" x="0px" y="0px"
	 viewBox="0 0 80 70" style="enable-background:new 0 0 80 70;" xml:space="preserve">
<style type="text/css">
	.st0{fill-rule:evenodd;clip-rule:evenodd;fill:#FFFFFF;}
</style>
<path class="st0" d="M70.3,41c0-0.4,0-0.9,0-1.3c0-11.5-6.7-22.1-17-27.1C52.9,5.7,47.1,0.2,40.2,0.2S27.5,5.7,27.1,12.6
	c-10.4,5-17,15.6-17,27.1c0,0.4,0,0.7,0,1.1c-4,2.4-6.4,6.6-6.4,11.3c0,7.2,5.9,13.1,13.1,13.1c1.9,0,3.8-0.4,5.6-1.2
	c5.2,3.9,11.4,5.9,17.9,5.9c6.4,0,12.6-2,17.7-5.8c1.7,0.8,3.5,1.2,5.3,1.2c7.2,0,13.1-5.9,13.1-13.1C76.4,47.6,74,43.4,70.3,41z
	 M50.2,52.1c0,2.6,0.8,5.1,2.2,7.3c-3.7,2.3-7.9,3.5-12.2,3.5c-4.4,0-8.7-1.3-12.4-3.6c1.4-2.1,2.1-4.6,2.1-7.1
	C29.8,45,24.1,39.2,17,39c0.2-8.1,4.7-15.4,11.7-19.4c2.3,4.1,6.7,6.8,11.4,6.8s9.2-2.6,11.4-6.8c7,4,11.4,11.3,11.7,19.4
	c0,0,0,0,0,0C56,39,50.2,44.9,50.2,52.1z"/>
</svg>
