<?xml version="1.0" encoding="utf-8"?>
<!-- Generator: Adobe Illustrator 27.0.0, SVG Export Plug-In . SVG Version: 6.00 Build 0)  -->
<svg version="1.1" id="Layer_1" xmlns="http://www.w3.org/2000/svg" xmlns:xlink="http://www.w3.org/1999/xlink" x="0px" y="0px"
	 viewBox="0 0 60 48" style="enable-background:new 0 0 60 48;" xml:space="preserve">
<style type="text/css">
	.st0{fill:#FFFFFF;enable-background:new    ;}
</style>
<path class="st0" d="M0.1,6.1c0-3.3,2.7-6,6-6h47.8c3.3,0,6,2.7,6,6v35.8c0,3.3-2.7,6-6,6H6.1c-3.3,0-6-2.7-6-6
	C0.1,41.9,0.1,6.1,0.1,6.1z M33,33l-9-9L6.1,41.9h47.8L39,27L33,33z M44.9,21c3.3,0,6-2.7,6-6s-2.7-6-6-6s-6,2.7-6,6
	S41.6,21,44.9,21z"/>
</svg>
