<?xml version="1.0" encoding="utf-8"?>
<!-- Generator: Adobe Illustrator 27.0.0, SVG Export Plug-In . SVG Version: 6.00 Build 0)  -->
<svg version="1.1" id="Layer_1" xmlns="http://www.w3.org/2000/svg" xmlns:xlink="http://www.w3.org/1999/xlink" x="0px" y="0px"
	 viewBox="0 0 80 70" style="enable-background:new 0 0 80 70;" xml:space="preserve">
<style type="text/css">
	.st0{fill:#FFFFFF;}
</style>
<g id="XMLID_1055_">
	<g>
		<path class="st0" d="M40,0.1C20.7,0.1,5.1,15.7,5.1,35S20.7,69.9,40,69.9S74.9,54.3,74.9,35S59.3,0.1,40,0.1z M45.8,57.3
			c0,1.3-1.1,2.4-2.4,2.4h-6.5c-1.3,0-2.4-1.1-2.4-2.4V30.8c0-1.3,1.1-2.4,2.4-2.4h6.5c1.3,0,2.4,1.1,2.4,2.4V57.3z M40,23.9
			c-3.3,0-5.9-2.6-5.9-5.9s2.6-5.9,5.9-5.9s5.9,2.6,5.9,5.9S43.3,23.9,40,23.9z"/>
	</g>
</g>
</svg>
