<?xml version="1.0" encoding="utf-8"?>
<!-- Generator: Adobe Illustrator 27.0.0, SVG Export Plug-In . SVG Version: 6.00 Build 0)  -->
<svg version="1.1" id="Layer_1" xmlns="http://www.w3.org/2000/svg" xmlns:xlink="http://www.w3.org/1999/xlink" x="0px" y="0px"
	 viewBox="0 0 50 50" style="enable-background:new 0 0 50 50;" xml:space="preserve">
<style type="text/css">
	.st0{fill:#FFFFFF;}
</style>
<g>
	<path class="st0" d="M42.4,7.6c-9.6-9.6-25.2-9.6-34.9,0c-9.6,9.6-9.6,25.2,0,34.9c8.5,8.5,21.6,9.5,31.2,3l8.8,2.1l-2.1-8.8
		C51.9,29.2,50.9,16.1,42.4,7.6z M36.4,36.4c-5.6,5.6-14.2,6.2-20.5,2l-5.8,1.4l1.4-5.8c-4.2-6.3-3.6-14.9,2-20.5
		c6.3-6.3,16.6-6.3,22.9,0C42.7,19.9,42.7,30.1,36.4,36.4z"/>
	<g>
		<ellipse transform="matrix(0.1299 -0.9915 0.9915 0.1299 -9.8796 38.7415)" class="st0" cx="17.1" cy="25" rx="2.3" ry="2.3"/>
		<ellipse transform="matrix(0.1602 -0.9871 0.9871 0.1602 -3.7351 45.6099)" class="st0" cx="24.9" cy="25" rx="2.3" ry="2.3"/>
		<ellipse transform="matrix(0.1602 -0.9871 0.9871 0.1602 2.817 53.3111)" class="st0" cx="32.7" cy="25" rx="2.3" ry="2.3"/>
	</g>
</g>
</svg>
