<?xml version="1.0" encoding="utf-8"?>
<!-- Generator: Adobe Illustrator 27.0.0, SVG Export Plug-In . SVG Version: 6.00 Build 0)  -->
<svg version="1.1" id="Layer_1" xmlns="http://www.w3.org/2000/svg" xmlns:xlink="http://www.w3.org/1999/xlink" x="0px" y="0px"
	 viewBox="0 0 80 70" style="enable-background:new 0 0 80 70;" xml:space="preserve">
<style type="text/css">
	.st0{fill:#FFFFFF;enable-background:new    ;}
</style>
<path id="Mail_00000034805142091730622730000015747733887613171853_" class="st0" d="M68.5,7.6h-57C6.3,7.6,2,11.9,2,17.1v35.7
	c0,5.2,4.3,9.5,9.5,9.5h57.1c5.2,0,9.5-4.3,9.5-9.5V17.2C78.1,11.9,73.8,7.6,68.5,7.6z M67.7,23.8L41.5,45.2c-0.4,0.4-1,0.5-1.5,0.5
	s-1.1-0.2-1.5-0.5L12.3,23.8c-1-0.8-1.2-2.3-0.3-3.3c0.8-1,2.3-1.2,3.3-0.3L40,40.3l24.7-20.2c1-0.8,2.5-0.7,3.3,0.3
	C68.8,21.4,68.7,22.9,67.7,23.8z"/>
</svg>
