<?xml version="1.0" encoding="utf-8"?>
<!-- Generator: Adobe Illustrator 27.0.0, SVG Export Plug-In . SVG Version: 6.00 Build 0)  -->
<svg version="1.1" id="Layer_1" xmlns="http://www.w3.org/2000/svg" xmlns:xlink="http://www.w3.org/1999/xlink" x="0px" y="0px"
	 viewBox="0 0 80 70" style="enable-background:new 0 0 80 70;" xml:space="preserve">
<style type="text/css">
	.st0{fill:#FFFFFF;}
</style>
<g>
	<path class="st0" d="M40,0.2C20.8,0.2,5.2,15.8,5.2,35S20.8,69.8,40,69.8c19.2,0,34.8-15.6,34.8-34.8S59.2,0.2,40,0.2z M40,59.9
		c-13.7,0-24.9-11.1-24.9-24.9c0-13.7,11.1-24.9,24.9-24.9S64.9,21.3,64.9,35C64.9,48.7,53.7,59.9,40,59.9z"/>
	<path class="st0" d="M40,20.1c-8.2,0-14.9,6.7-14.9,14.9S31.8,49.9,40,49.9S54.9,43.2,54.9,35S48.2,20.1,40,20.1z M40,40
		c-2.7,0-5-2.2-5-5s2.2-5,5-5s5,2.2,5,5S42.7,40,40,40z"/>
</g>
</svg>
