<?xml version="1.0" encoding="utf-8"?>
<!-- Generator: Adobe Illustrator 27.0.0, SVG Export Plug-In . SVG Version: 6.00 Build 0)  -->
<svg version="1.1" id="Layer_1" xmlns="http://www.w3.org/2000/svg" xmlns:xlink="http://www.w3.org/1999/xlink" x="0px" y="0px"
	 viewBox="0 0 98 98" style="enable-background:new 0 0 98 98;" xml:space="preserve">
<style type="text/css">
	.st0{fill:#FFFFFF;}
</style>
<path class="st0" d="M49,0C21.9,0,0,21.9,0,49s21.9,49,49,49s49-21.9,49-49S76.1,0,49,0z M30.2,29.3c4.2,0,7.5,4,7.5,9s-3.4,9-7.5,9
	s-7.5-4-7.5-9S26,29.3,30.2,29.3z M73.6,65.2C68.4,73,59.3,78.1,49,78.1s-19.4-5-24.6-12.9c-1.7-2.5,1.5-5.4,3.8-3.6
	C33.7,66,41,68.5,49,68.5s15.3-2.5,20.8-6.8C72.1,59.8,75.3,62.7,73.6,65.2z M67.6,47.2c-4.2,0-7.5-4-7.5-9s3.4-9,7.5-9
	c4.2,0,7.5,4,7.5,9S71.8,47.2,67.6,47.2z"/>
</svg>
