<?xml version="1.0" encoding="utf-8"?>
<!-- Generator: Adobe Illustrator 27.0.0, SVG Export Plug-In . SVG Version: 6.00 Build 0)  -->
<svg version="1.1" id="Layer_1" xmlns="http://www.w3.org/2000/svg" xmlns:xlink="http://www.w3.org/1999/xlink" x="0px" y="0px"
	 viewBox="0 0 80 70" style="enable-background:new 0 0 80 70;" xml:space="preserve">
<style type="text/css">
	.st0{fill:#FFFFFF;}
</style>
<path class="st0" d="M40,0.1C20.7,0.1,5.1,15.7,5.1,35S20.7,69.9,40,69.9c19.3,0,34.9-15.6,34.9-34.9S59.3,0.1,40,0.1z M26.6,20.9
	c3,0,5.4,2.9,5.4,6.4s-2.4,6.4-5.4,6.4s-5.4-2.9-5.4-6.4S23.6,20.9,26.6,20.9z M57.6,46.5c-3.7,5.6-10.2,9.2-17.6,9.2
	c-7.4,0-13.8-3.6-17.6-9.2c-1.2-1.8,1.1-3.9,2.7-2.5c3.9,3.1,9.1,4.9,14.8,4.9c5.7,0,10.9-1.8,14.8-4.9
	C56.5,42.7,58.7,44.8,57.6,46.5z M53.3,33.7c-3,0-5.4-2.9-5.4-6.4s2.4-6.4,5.4-6.4c3,0,5.4,2.9,5.4,6.4S56.3,33.7,53.3,33.7z"/>
</svg>
