<?xml version="1.0" encoding="utf-8"?>
<!-- Generator: Adobe Illustrator 27.2.0, SVG Export Plug-In . SVG Version: 6.00 Build 0)  -->
<svg version="1.1" id="Layer_1" xmlns="http://www.w3.org/2000/svg" xmlns:xlink="http://www.w3.org/1999/xlink" x="0px" y="0px"
	 viewBox="0 0 80 70" style="enable-background:new 0 0 80 70;" xml:space="preserve">
<style type="text/css">
	.st0{fill:none;}
	.st1{fill:#FFFFFF;}
</style>
<rect class="st0" width="160" height="160"/>
<path class="st0" d="M91.2,35.5H66.7c-3.6,0-6.6,3-6.6,6.6v38.1c0,3.6,3,6.5,6.5,6.5h24.5c3.6,0,6.5-3,6.5-6.5V42
	C97.7,38.5,94.7,35.5,91.2,35.5z M91.8,66c-0.3,0.3-0.8,0.5-1.3,0.5H67.4c-1,0-1.9-0.8-1.9-1.9c0-0.5,0.2-1,0.5-1.3
	c0.3-0.3,0.8-0.5,1.3-0.5h23.1c1,0,1.9,0.8,1.9,1.9C92.3,65.3,92.1,65.7,91.8,66z M91.8,59c-0.3,0.3-0.8,0.5-1.3,0.5H67.4
	c-1,0-1.9-0.8-1.9-1.9c0-0.5,0.2-1,0.5-1.3c0.3-0.3,0.8-0.5,1.3-0.5h23.1c1,0,1.9,0.8,1.9,1.9C92.3,58.2,92.1,58.7,91.8,59z"/>
</svg>
