<?xml version="1.0" encoding="utf-8"?>
<!-- Generator: Adobe Illustrator 27.0.0, SVG Export Plug-In . SVG Version: 6.00 Build 0)  -->
<svg version="1.1" id="Layer_1" xmlns="http://www.w3.org/2000/svg" xmlns:xlink="http://www.w3.org/1999/xlink" x="0px" y="0px"
	 viewBox="0 0 80 70" style="enable-background:new 0 0 80 70;" xml:space="preserve">
<style type="text/css">
	.st0{fill:#FFFFFF;}
</style>
<g>
	<g>
		<path class="st0" d="M13.4,67.8l11.2-4.1c1.6-0.6,3.2-1.6,4.4-2.8l37.8-37.8L51.9,8.3L14.1,46c-1.2,1.2-2.2,2.7-2.8,4.4L7.2,61.7
			C4.5,68.5,6.1,70.4,13.4,67.8z"/>
	</g>
	<g>
		<path class="st0" d="M71.9,7l-3.8-3.8c-1.5-1.5-3.7-2.3-6-2.1c-2.2,0.2-4.2,1.2-5.8,2.8l-1,1l14.9,14.9l1-1
			c1.6-1.6,2.6-3.7,2.8-5.8C74.2,10.7,73.4,8.5,71.9,7z"/>
	</g>
</g>
</svg>
