<?xml version="1.0" encoding="utf-8"?>
<!-- Generator: Adobe Illustrator 27.0.0, SVG Export Plug-In . SVG Version: 6.00 Build 0)  -->
<svg version="1.1" id="Layer_1" xmlns="http://www.w3.org/2000/svg" xmlns:xlink="http://www.w3.org/1999/xlink" x="0px" y="0px"
	 viewBox="0 0 80 70" style="enable-background:new 0 0 80 70;" xml:space="preserve">
<style type="text/css">
	.st0{fill:#FFFFFF;}
</style>
<g>
	<path class="st0" d="M27.5,9.9c-0.1-0.4-0.5-0.6-0.9-0.6h-7.5c-0.4,0-0.8,0.3-0.9,0.6L0.3,59.1c-0.1,0.3-0.1,0.6,0.1,0.9
		c0.2,0.3,0.5,0.4,0.8,0.4h10c0.4,0,0.8-0.3,0.9-0.6l2.7-8.1H31l2.7,8c0.1,0.4,0.5,0.7,0.9,0.7h10c0.3,0,0.6-0.2,0.8-0.4
		c0.2-0.3,0.2-0.6,0.1-0.9L27.5,9.9z M18.2,41.7l4.9-14l4.7,14H18.2z"/>
	<path class="st0" d="M63.5,22.1c-6.4,0-10,1.4-13.6,5.4c-0.3,0.4-0.3,1,0,1.3l5.7,5.6c0.2,0.2,0.4,0.3,0.7,0.3c0,0,0,0,0,0
		c0.3,0,0.5-0.1,0.7-0.3c1.8-2.1,3.3-2.8,6.2-2.8c4.8,0,5.7,1.8,5.7,4.7v0.8h-7.4c-9.9,0-13.4,5.9-13.4,11.4c0,3.5,1.2,6.6,3.3,8.8
		c2.3,2.3,5.6,3.5,9.9,3.5c3.4,0,5.7-0.6,7.9-2.3v1c0,0.5,0.4,1,1,1h8.8c0.5,0,1-0.4,1-1V35.7C79.8,29.5,76.9,22.1,63.5,22.1z
		 M63.1,51.5c-3,0-4.5-1-4.5-3.1c0-1.4,0.5-3.2,4.4-3.2h5.9v1c0,2.1-0.3,3.2-1.1,3.9C66.5,51.2,65.1,51.5,63.1,51.5z"/>
</g>
</svg>
